<svg width="100" height="100" viewBox="0 0 100 100" fill="none" xmlns="http://www.w3.org/2000/svg">
<path d="M59.466 51.7475C59.466 52.7345 59.466 53.7371 59.466 54.7423C59.466 55.784 58.9973 56.5834 58.2343 57.2761C57.8905 57.5862 57.633 57.9801 57.4869 58.4194C57.164 59.435 56.966 60.4897 56.6848 61.5209C56.2212 63.2709 55.1223 64.1251 53.2994 64.1251C51.1223 64.1251 48.9478 64.1251 46.7707 64.1251C45.1561 64.1251 44.078 63.31 43.6171 61.7527C43.3957 61.0079 43.2395 60.2449 43.0442 59.4949C42.7837 58.5079 42.5754 57.5704 41.6405 56.8491C41.1197 56.4506 40.8931 55.5183 40.789 54.7892C40.6483 53.8048 40.7525 52.7866 40.7525 52.0157C39.8645 51.4689 38.9296 51.159 38.427 50.5079C37.9244 49.8569 37.7525 48.8725 37.6327 48.0105C37.4057 46.3303 36.7381 44.74 35.6978 43.4011C34.6561 42.034 33.578 40.6928 32.5051 39.3465C24.9999 29.9168 27.5337 14.7293 38.8436 7.97146C52.1614 0.0157318 69.2369 7.935 71.6926 23.2371C72.7343 29.6824 71.1015 35.4532 66.8567 40.4663C65.789 41.7267 64.703 43.0105 63.8879 44.435C63.2423 45.5869 62.82 46.8504 62.6431 48.159C62.341 50.3803 61.7186 51.2501 59.466 51.7475ZM43.841 36.0444C43.2447 36.0444 42.7317 36.0444 42.2186 36.0444C41.3033 36.0267 40.4132 35.7407 39.659 35.2217C38.9047 34.7027 38.3195 33.9736 37.9759 33.125C37.6323 32.2764 37.5455 31.3455 37.7262 30.448C37.907 29.5504 38.3473 28.7257 38.9926 28.0762C39.6379 27.4267 40.4597 26.981 41.356 26.7944C42.2523 26.6078 43.1837 26.6885 44.0346 27.0266C44.8855 27.3646 45.6183 27.945 46.1422 28.6959C46.6661 29.4467 46.958 30.3349 46.9817 31.2501C46.9817 31.7892 46.9817 32.3282 46.9817 32.8517H53.2317C53.2317 32.2918 53.2317 31.81 53.2317 31.3204C53.2373 30.3962 53.5161 29.4943 54.0329 28.7281C54.5497 27.9619 55.2814 27.3656 56.1362 27.014C56.9909 26.6625 57.9305 26.5715 58.8368 26.7524C59.7431 26.9334 60.5757 27.3782 61.23 28.031C61.8842 28.6838 62.3309 29.5154 62.5138 30.4213C62.6968 31.3273 62.6078 32.267 62.2582 33.1226C61.9086 33.9781 61.3138 34.7112 60.5487 35.2296C59.7837 35.7481 58.8824 36.0289 57.9582 36.0366C57.4374 36.0366 56.94 36.0366 56.3957 36.0366V48.4637H59.4452C59.4452 45.8595 60.4061 43.659 61.8879 41.6616C62.7395 40.5157 63.6223 39.3907 64.539 38.297C68.4009 33.7006 69.6535 28.4376 68.3358 22.6381C65.966 12.2215 55.8697 5.95063 45.4712 8.60167C31.8801 12.0652 27.44 28.1329 35.0858 37.5418C35.3462 37.8699 35.6067 38.211 35.8671 38.5392C38.2655 41.4845 40.7968 44.3647 40.7603 48.4506H43.841V36.0444ZM47.0442 36.0887V48.4532H53.1718V36.0887H47.0442ZM56.3228 51.7006H43.9322V54.6876H56.3332L56.3228 51.7006ZM46.6457 60.9715H53.552C53.7968 59.961 54.0364 58.9715 54.2916 57.922H45.9192C46.1718 58.9715 46.4114 59.961 46.6561 60.9715H46.6457ZM43.8593 32.9168C43.8593 32.3074 43.9009 31.7944 43.8593 31.2892C43.8262 30.8831 43.6399 30.5047 43.3381 30.231C43.0363 29.9572 42.6417 29.8086 42.2343 29.8152C41.863 29.8546 41.5158 30.0182 41.2492 30.2796C40.9826 30.541 40.8122 30.8849 40.7655 31.2553C40.7477 31.6628 40.8873 32.0615 41.1554 32.3688C41.4235 32.6762 41.7995 32.8686 42.2056 32.9064C42.7563 32.9387 43.3082 32.9422 43.8593 32.9168ZM56.3593 32.9168C56.9198 32.9431 57.4815 32.9387 58.0416 32.9038C58.4302 32.8603 58.7893 32.6755 59.0505 32.3845C59.3117 32.0935 59.4568 31.7167 59.4582 31.3256C59.4286 30.9366 59.2613 30.5709 58.9864 30.2941C58.7115 30.0173 58.347 29.8475 57.9582 29.8152C57.5672 29.8131 57.1892 29.9551 56.8962 30.214C56.6032 30.4729 56.4158 30.8306 56.3697 31.2189C56.3364 31.7843 56.3347 32.3511 56.3645 32.9168H56.3593Z" fill="white"/>
<path d="M66.0628 79.2787C61.1149 74.8672 61.9508 68.5313 65.4274 65.1823C67.2122 63.4625 69.6034 62.5162 72.0817 62.5489C74.5601 62.5816 76.9255 63.5906 78.6643 65.3568C82.1045 68.8829 82.5706 75.0704 77.9899 79.1329C79.443 80.1355 81.0341 81.0209 82.3649 82.198C85.7138 85.1589 87.4196 88.9558 87.5419 93.4349C87.5758 94.7709 87.0211 95.3152 85.6591 95.3152H58.2763C56.8675 95.3152 56.2946 94.7813 56.3675 93.3724C56.6852 87.1224 59.6565 82.5886 65.1982 79.7136C65.4794 79.5678 65.7633 79.4271 66.0628 79.2787ZM84.206 92.1589C83.9039 87.211 79.1722 81.0704 71.4847 81.3021C65.3909 81.4844 59.3232 87.1355 59.7373 92.1563H78.1878C77.4404 91.0339 76.8362 90.1068 76.2112 89.1902C75.706 88.4506 75.7503 87.6563 76.3597 87.0782C76.6446 86.8059 77.0229 86.6529 77.417 86.6505C77.8111 86.6481 78.1912 86.7964 78.4794 87.0652C78.7375 87.2633 78.9603 87.5037 79.1383 87.7761C79.9378 89.1928 80.7008 90.6277 81.5393 92.1589H84.206ZM78.1904 71.9271C78.1929 70.6881 77.8271 69.4763 77.1395 68.4457C76.4519 67.415 75.4734 66.6119 74.3284 66.1385C73.1834 65.6651 71.9235 65.5427 70.7088 65.7869C69.4941 66.031 68.3794 66.6307 67.5062 67.5098C66.633 68.3888 66.0408 69.5075 65.8048 70.7239C65.5688 71.9402 65.6997 73.1992 66.1807 74.341C66.6618 75.4828 67.4714 76.4559 68.5066 77.1366C69.5419 77.8173 70.7561 78.175 71.9951 78.1641C73.6361 78.1344 75.2009 77.4665 76.3576 76.302C77.5143 75.1376 78.1717 73.5683 78.1904 71.9271Z" fill="white"/>
<path d="M22.3802 79.2865C17.3724 74.8203 18.3125 68.4115 21.8046 65.125C23.605 63.4211 26.0048 62.496 28.4831 62.5506C30.9613 62.6052 33.318 63.6351 35.0416 65.4167C38.4687 69.0052 38.8203 75.1536 34.2994 79.1328C35.7526 80.1354 37.3411 81.0156 38.6718 82.1901C42.0234 85.1458 43.7317 88.9427 43.8567 93.4219C43.8958 94.7708 43.3359 95.3151 41.9895 95.3151H14.5078C13.2057 95.3151 12.625 94.7578 12.6849 93.4922C12.9453 87.2057 15.9349 82.6328 21.5052 79.7292C21.7864 79.5703 22.0781 79.4271 22.3802 79.2865ZM22.0599 92.1615H40.513C40.6276 86.6927 34.4661 81.2083 28.2161 81.2917C20.4843 81.3932 16.1979 87.724 16.0234 92.151H19.0312C19.3362 90.4021 20.1329 88.7763 21.3281 87.4635C22.1458 86.5677 23.0729 86.4219 23.7942 87.0391C24.5156 87.6562 24.4895 88.526 23.7395 89.5312C23.177 90.2995 22.7083 91.1458 22.0599 92.1615ZM28.289 65.6823C27.0541 65.6762 25.8451 66.036 24.8146 66.7164C23.784 67.3968 22.9781 68.3672 22.4985 69.5052C22.019 70.6432 21.8873 71.8977 22.1201 73.1105C22.3529 74.3232 22.9398 75.4398 23.8066 76.3194C24.6734 77.1989 25.7814 77.8019 26.9906 78.0524C28.1999 78.3028 29.4562 78.1894 30.601 77.7264C31.7459 77.2635 32.7279 76.4718 33.4232 75.4512C34.1185 74.4307 34.4959 73.227 34.5078 71.9922C34.5079 70.3344 33.8557 68.7431 32.692 67.5623C31.5283 66.3816 29.9467 65.7062 28.289 65.6823Z" fill="white"/>
<path d="M20.5364 48.026C23.9218 49.8228 25.9713 52.5494 26.5989 56.2968C26.6684 56.7456 26.7015 57.1994 26.6979 57.6536C26.6979 58.8671 26.1406 59.4348 24.914 59.44C21.4687 59.44 18.026 59.44 14.5807 59.44C11.9479 59.44 9.31507 59.44 6.68226 59.44C5.40622 59.44 4.82809 58.8723 4.88018 57.5807C5.04424 53.5338 6.93226 50.4973 10.375 48.401C10.5885 48.2708 10.8073 48.1405 11.0208 48.0208C8.8932 44.2187 9.17445 41.1484 11.8177 38.9765C12.9489 38.0585 14.3635 37.5611 15.8204 37.5692C17.2773 37.5773 18.6862 38.0903 19.8073 39.0208C22.4323 41.2395 22.6979 44.328 20.5364 48.026ZM23.3567 56.289C22.9927 54.5166 22.0207 52.927 20.6089 51.7953C19.1971 50.6636 17.4342 50.0607 15.625 50.0911C12.0052 50.19 8.79164 52.8801 8.26039 56.289H23.3567ZM18.901 43.8723C18.8874 43.0525 18.5593 42.2694 17.9844 41.6848C17.4095 41.1002 16.6319 40.759 15.8125 40.7317C15.1936 40.7245 14.5865 40.9012 14.0681 41.2395C13.5498 41.5778 13.1436 42.0623 12.901 42.6318C12.6585 43.2012 12.5905 43.8298 12.7056 44.438C12.8208 45.0461 13.114 45.6063 13.5479 46.0476C13.9819 46.4889 14.5372 46.7914 15.1433 46.9168C15.7494 47.0421 16.3791 46.9846 16.9525 46.7516C17.5259 46.5186 18.0172 46.1205 18.3641 45.6079C18.711 45.0953 18.8979 44.4913 18.901 43.8723Z" fill="white"/>
<path d="M79.6538 48.0312C77.5704 43.9218 77.8699 40.9713 80.5835 38.8749C81.751 37.9749 83.1975 37.5134 84.6706 37.571C86.1436 37.6286 87.5497 38.2016 88.6434 39.19C91.1225 41.4661 91.3283 44.5546 89.1824 47.9869L90.0392 48.5077C93.3569 50.5911 95.1538 53.5885 95.3387 57.5077C95.4012 58.8619 94.8179 59.4244 93.5001 59.427C87.4533 59.427 81.4081 59.427 75.3647 59.427C74.0626 59.427 73.4819 58.8749 73.5236 57.6041C73.6486 53.8332 75.3257 50.9036 78.4116 48.7655C78.81 48.5077 79.2397 48.2786 79.6538 48.0312ZM91.9897 56.3046C91.6286 54.48 90.6211 52.8471 89.1523 51.706C87.6835 50.5649 85.8521 49.9924 83.9949 50.0937C80.4246 50.3254 77.1199 53.2187 76.9376 56.3046H91.9897ZM87.547 43.8385C87.547 43.2197 87.3633 42.6149 87.0192 42.1007C86.6752 41.5864 86.1862 41.1859 85.6143 40.9499C85.0423 40.7138 84.4132 40.6528 83.8066 40.7747C83.2 40.8965 82.6432 41.1957 82.2068 41.6343C81.7704 42.0729 81.474 42.6312 81.3552 43.2384C81.2364 43.8456 81.3005 44.4745 81.5394 45.0452C81.7783 45.6159 82.1813 46.1029 82.6972 46.4444C83.2132 46.7859 83.8189 46.9665 84.4376 46.9635C85.2581 46.9416 86.0386 46.6048 86.6175 46.023C87.1964 45.4412 87.5292 44.659 87.547 43.8385Z" fill="white"/>
<path d="M50.0885 67.2501C51.3217 67.2465 52.5282 67.6086 53.5555 68.2908C54.5828 68.9729 55.3847 69.9444 55.8598 71.0824C56.3349 72.2203 56.4619 73.4736 56.2246 74.6837C55.9874 75.8939 55.3966 77.0065 54.527 77.8808C53.6574 78.7551 52.5481 79.3519 51.3393 79.5957C50.1305 79.8395 48.8765 79.7194 47.736 79.2504C46.5955 78.7815 45.6196 77.9849 44.9319 76.9613C44.2442 75.9377 43.8755 74.7332 43.8724 73.5001C43.8644 72.6799 44.0195 71.8664 44.3287 71.1068C44.6378 70.3471 45.0949 69.6565 45.6732 69.0749C46.2516 68.4934 46.9398 68.0327 47.6977 67.7194C48.4557 67.4061 49.2684 67.2466 50.0885 67.2501ZM53.2135 73.4506C53.2088 72.8318 53.0205 72.2283 52.6724 71.7166C52.3244 71.205 51.8322 70.8082 51.2584 70.5765C50.6846 70.3449 50.0549 70.2888 49.4491 70.4154C48.8434 70.542 48.2889 70.8457 47.8559 71.2878C47.4229 71.7299 47.131 72.2906 47.017 72.8989C46.9031 73.5071 46.9723 74.1355 47.2159 74.7044C47.4595 75.2732 47.8665 75.757 48.3853 76.0943C48.9041 76.4316 49.5114 76.6073 50.1302 76.599C50.9519 76.5724 51.7318 76.2305 52.3083 75.6443C52.8848 75.0582 53.2136 74.2726 53.2265 73.4506H53.2135Z" fill="white"/>
<path d="M11.0916 71.9192C10.16 71.919 9.24957 71.6411 8.47657 71.1212C7.70357 70.6012 7.10303 69.8628 6.7516 69C6.40017 68.1372 6.31379 67.1893 6.50348 66.2772C6.69317 65.3651 7.15033 64.5303 7.81661 63.8792C8.4829 63.2281 9.32808 62.7903 10.2443 62.6216C11.1605 62.453 12.1062 62.5612 12.9606 62.9324C13.815 63.3036 14.5395 63.921 15.0415 64.7058C15.5435 65.4906 15.8003 66.4071 15.7791 67.3385C15.7605 68.5661 15.2573 69.7366 14.3792 70.5948C13.5011 71.4529 12.3193 71.929 11.0916 71.9192ZM12.6541 67.2734C12.6439 66.8673 12.4822 66.4796 12.2008 66.1867C11.9194 65.8937 11.5386 65.7165 11.1332 65.69C10.9159 65.6623 10.6951 65.6806 10.4852 65.7437C10.2754 65.8068 10.0812 65.9134 9.91517 66.0565C9.74919 66.1995 9.61516 66.3759 9.52179 66.5742C9.42842 66.7724 9.3778 66.9881 9.3732 67.2072C9.36861 67.4263 9.41016 67.6439 9.49514 67.8459C9.58013 68.0479 9.70665 68.2297 9.86649 68.3797C10.0263 68.5296 10.2159 68.6442 10.4229 68.716C10.63 68.7879 10.8498 68.8154 11.0681 68.7968C11.4758 68.7879 11.8654 68.6265 12.1599 68.3445C12.4545 68.0625 12.6327 67.6803 12.6593 67.2734H12.6541Z" fill="white"/>
<path d="M22.0205 20.4844C22.0169 21.4117 21.7383 22.3171 21.22 23.086C20.7017 23.855 19.967 24.4529 19.1087 24.8042C18.2505 25.1555 17.3074 25.2443 16.3987 25.0595C15.49 24.8747 14.6565 24.4245 14.0037 23.7659C13.351 23.1072 12.9082 22.2698 12.7314 21.3595C12.5547 20.4492 12.6519 19.5069 13.0108 18.6518C13.3697 17.7968 13.9742 17.0674 14.7477 16.5559C15.5213 16.0445 16.4291 15.774 17.3564 15.7786C17.973 15.7765 18.5839 15.8971 19.1534 16.1333C19.723 16.3696 20.2398 16.7168 20.6739 17.1547C21.108 17.5927 21.4506 18.1126 21.6818 18.6842C21.9129 19.2559 22.0281 19.8678 22.0205 20.4844ZM17.333 22.0026C17.6425 22.0052 17.9459 21.9157 18.2046 21.7456C18.4632 21.5755 18.6655 21.3324 18.7858 21.0471C18.906 20.7618 18.9389 20.4473 18.88 20.1433C18.8212 19.8394 18.6735 19.5597 18.4555 19.3399C18.2375 19.1201 17.9591 18.97 17.6556 18.9086C17.3522 18.8473 17.0374 18.8774 16.7511 18.9953C16.4648 19.1132 16.22 19.3134 16.0478 19.5707C15.8755 19.8279 15.7835 20.1305 15.7835 20.4401C15.7989 20.8491 15.9681 21.2373 16.2573 21.5269C16.5465 21.8166 16.9344 21.9865 17.3434 22.0026H17.333Z" fill="white"/>
<path d="M82.8616 25.1251C81.9382 25.1225 81.0363 24.8465 80.2696 24.3319C79.5028 23.8172 78.9057 23.087 78.5535 22.2334C78.2013 21.3798 78.1099 20.441 78.2907 19.5355C78.4714 18.6299 78.9164 17.7982 79.5693 17.1452C80.2223 16.4923 81.054 16.0474 81.9595 15.8666C82.8651 15.6858 83.8039 15.7773 84.6575 16.1295C85.5111 16.4816 86.2413 17.0788 86.7559 17.8455C87.2705 18.6122 87.5466 19.5142 87.5491 20.4376C87.5554 21.0549 87.4384 21.6672 87.2051 22.2388C86.9717 22.8103 86.6267 23.3296 86.1902 23.7661C85.7536 24.2026 85.2344 24.5477 84.6629 24.781C84.0913 25.0144 83.479 25.1313 82.8616 25.1251ZM81.32 20.4376C81.3138 20.7479 81.4001 21.053 81.568 21.314C81.7358 21.575 81.9776 21.7801 82.2626 21.9032C82.5475 22.0263 82.8626 22.0617 83.1677 22.005C83.4728 21.9483 83.7541 21.802 83.9758 21.5848C84.1975 21.3675 84.3494 21.0892 84.4123 20.7853C84.4751 20.4814 84.4461 20.1657 84.3288 19.8783C84.2115 19.591 84.0113 19.3451 83.7537 19.172C83.4961 18.9989 83.1928 18.9064 82.8825 18.9063C82.479 18.9199 82.0952 19.0836 81.8062 19.3654C81.5171 19.6472 81.3438 20.0268 81.32 20.4298V20.4376Z" fill="white"/>
<path d="M93.7887 67.1874C93.8005 68.1188 93.5346 69.0327 93.0249 69.8123C92.5151 70.592 91.7846 71.202 90.9266 71.5647C90.0686 71.9274 89.1219 72.0262 88.2075 71.8485C87.2931 71.6709 86.4524 71.2248 85.7926 70.5672C85.1328 69.9096 84.6839 69.0704 84.5032 68.1566C84.3224 67.2428 84.418 66.2959 84.7778 65.4366C85.1376 64.5774 85.7452 63.8448 86.5231 63.3325C87.301 62.8201 88.214 62.5511 89.1455 62.5598C90.3738 62.5611 91.5517 63.0486 92.4217 63.9157C93.2917 64.7828 93.7832 65.9591 93.7887 67.1874ZM89.1376 68.7863C89.4474 68.7826 89.7491 68.6869 90.0043 68.5114C90.2596 68.3359 90.4569 68.0884 90.5712 67.8005C90.6855 67.5126 90.7117 67.1972 90.6463 66.8944C90.581 66.5915 90.4271 66.315 90.2042 66.0998C89.9814 65.8847 89.6995 65.7406 89.3946 65.686C89.0897 65.6313 88.7754 65.6685 88.4917 65.7929C88.208 65.9173 87.9676 66.1232 87.8012 66.3845C87.6347 66.6457 87.5497 66.9506 87.5569 67.2603C87.5802 67.6678 87.7555 68.0517 88.0482 68.3362C88.3409 68.6207 88.7297 68.785 89.1376 68.7968V68.7863Z" fill="white"/>
</svg>
