<svg width="69" height="68" viewBox="0 0 69 68" fill="none" xmlns="http://www.w3.org/2000/svg">
<path d="M27.9844 39.9496H11.834V2.83333H29.7028C31.3437 2.83333 32.9173 3.48515 34.0776 4.64541C35.2378 5.80567 35.8896 7.37932 35.8896 9.02017V23.0713" stroke="#FF471D" stroke-width="3"/>
<path d="M59.9443 27.2288V2.83333H42.0755C40.4347 2.83333 38.861 3.48515 37.7008 4.64541C36.5405 5.80567 35.8887 7.37932 35.8887 9.02017" stroke="#FF471D" stroke-width="3"/>
<path d="M33.084 35.4167C33.084 38.0467 34.1288 40.5691 35.9885 42.4288C37.8482 44.2885 40.3706 45.3333 43.0007 45.3333C45.6307 45.3333 48.1531 44.2885 50.0128 42.4288C51.8725 40.5691 52.9173 38.0467 52.9173 35.4167C52.9173 32.7866 51.8725 30.2643 50.0128 28.4045C48.1531 26.5448 45.6307 25.5 43.0007 25.5C40.3706 25.5 37.8482 26.5448 35.9885 28.4045C34.1288 30.2643 33.084 32.7866 33.084 35.4167Z" stroke="#FF471D" stroke-width="3"/>
<path d="M62.8327 56.3068C56.8052 52.82 49.9627 50.9892 42.9994 51C35.7743 51 29.0027 52.9323 23.166 56.3068V65.1667H62.8327V56.3068Z" stroke="#FF471D" stroke-width="3"/>
</svg>
