<svg width="69" height="68" viewBox="0 0 69 68" fill="none" xmlns="http://www.w3.org/2000/svg">
<path d="M34.4457 2.83333L17.5664 10.1466V11.3127L34.4457 18.6261L51.3252 11.3127V10.1466L34.4457 2.83333Z" stroke="black" stroke-width="3"/>
<path d="M24.4902 15.3572L24.5083 22.6567L34.4453 27.3146L44.3981 22.6567L44.3965 15.3572" stroke="black" stroke-width="3"/>
<path d="M17.5664 22.3418V12.3859" stroke="black" stroke-width="3" stroke-linejoin="round"/>
<path d="M14.0078 26.8725L17.5702 23.3099L21.1328 26.8725V29.5443L17.5702 33.1067L14.0078 29.5443V26.8725Z" stroke="black" stroke-width="3"/>
<path d="M27.4885 39.5955C25.6288 37.7357 24.584 35.2134 24.584 32.5833C24.584 29.9533 25.5576 27.3597 27.4173 25.5L34.4295 28.2621L41.4416 25.5C43.3013 27.3597 44.4173 29.9533 44.4173 32.5833C44.4173 35.2134 43.3725 37.7357 41.5128 39.5955C39.6531 41.4552 37.1307 42.5 34.5007 42.5C31.8706 42.5 29.3482 41.4552 27.4885 39.5955Z" stroke="black" stroke-width="3"/>
<path d="M54.3327 53.4735C48.3052 49.9867 41.4627 48.1558 34.4994 48.1667C27.2743 48.1667 20.5027 50.099 14.666 53.4735V62.3333H54.3327V53.4735Z" stroke="black" stroke-width="3"/>
</svg>
