<svg width="60" height="53" viewBox="0 0 60 53" fill="none" xmlns="http://www.w3.org/2000/svg">
<path d="M36.0339 30.1646C35.5682 30.0245 35.0775 30.2883 34.9373 30.7539L33.4572 35.674C33.4325 35.7563 33.4199 35.8417 33.4199 35.9276V51.8036C33.4199 52.2898 33.8141 52.6839 34.3002 52.6839C34.7864 52.6839 35.1805 52.2898 35.1805 51.8036V36.0572L36.6233 31.2612C36.7634 30.7956 36.4996 30.3046 36.0339 30.1646Z" fill="#FF471D"/>
<path d="M38.5489 20.7244C38.0684 20.6515 37.6197 20.9825 37.5469 21.4632C37.4225 22.2854 37.2387 23.1037 37.0005 23.8952L36.018 27.1615C35.878 27.6271 36.1418 28.118 36.6073 28.2581C36.692 28.2836 36.7773 28.2957 36.8613 28.2957C37.2397 28.2957 37.5894 28.0498 37.704 27.6688L38.6865 24.4025C38.9486 23.5314 39.1508 22.631 39.2877 21.7265C39.3604 21.2458 39.0297 20.7971 38.5489 20.7244Z" fill="#FF471D"/>
<path d="M16.0216 42.3951L8.35414 42.3651C7.46563 42.3615 6.71139 41.7235 6.5608 40.8479L5.25608 33.264C5.18342 32.8415 4.8171 32.5329 4.38846 32.5329H1.76306C1.80743 30.3644 2.43338 28.2512 3.58023 26.4061L4.51604 24.9006C4.74492 24.5322 4.84821 24.1091 4.81476 23.6769L4.46358 19.1321C4.11345 14.6006 5.62099 10.268 8.7086 6.93275C11.7962 3.59736 15.9997 1.76048 20.5447 1.76048C20.7492 1.76048 20.9619 1.76435 21.1768 1.77198C21.6613 1.78959 22.0705 1.4093 22.0877 0.92349C22.105 0.437684 21.725 0.0298128 21.2392 0.0125589C21.0035 0.00422547 20.7698 0 20.5447 0C15.5766 0 10.7916 2.091 7.41656 5.73684C4.04162 9.38268 2.32551 14.3146 2.70826 19.2678L3.05944 23.8127C3.06379 23.8688 3.05029 23.9237 3.02071 23.9714L2.08501 25.4769C0.721022 27.6713 0 30.197 0 32.781C0 33.615 0.678533 34.2936 1.51259 34.2936H3.64678L4.82567 41.1465C5.12157 42.8659 6.60258 44.1189 8.34733 44.1258L16.0148 44.1558C16.7484 44.1586 17.3453 44.7578 17.3453 45.4914V51.9007C17.3453 52.3868 17.7394 52.781 18.2256 52.781C18.7117 52.781 19.1059 52.3868 19.1059 51.9007V45.4914C19.1059 43.7907 17.7223 42.4017 16.0216 42.3951Z" fill="#FF471D"/>
<path d="M57.9142 25.4767L56.9785 23.9713C56.9488 23.9235 56.9354 23.8686 56.9396 23.8126L57.2908 19.2678C57.6735 14.3145 55.9574 9.38268 52.5825 5.73684C49.2075 2.091 44.4225 0 39.4543 0C36.0509 0 32.8087 0.881119 29.9806 2.51612C28.5565 1.69334 27.0253 1.05436 25.4234 0.630997C24.9535 0.506464 24.4717 0.78722 24.3475 1.25718C24.2232 1.72714 24.5036 2.20896 24.9737 2.33314C26.1311 2.63901 27.2478 3.06954 28.3074 3.60922C26.7859 4.7218 25.417 6.07299 24.2506 7.64192C20.64 12.4985 19.5691 18.6075 21.3124 24.4025L22.0634 26.8989C22.2034 27.3644 22.6945 27.6287 23.16 27.4883C23.6255 27.3482 23.8895 26.8573 23.7493 26.3917L22.9984 23.8953C21.4171 18.6387 22.3885 13.0974 25.6636 8.69229C26.8832 7.05177 28.346 5.67228 29.9849 4.58635C32.2692 6.09647 34.1982 8.15132 35.5589 10.5865C35.7202 10.875 36.0196 11.0375 36.3282 11.0375C36.4735 11.0375 36.6209 11.0014 36.7567 10.9255C37.1812 10.6883 37.333 10.1521 37.0958 9.72764C35.7398 7.30083 33.8702 5.21711 31.6618 3.60922C34.0311 2.40497 36.6836 1.76048 39.4544 1.76048C43.9995 1.76048 48.2029 3.59736 51.2906 6.93275C54.3782 10.2681 55.8857 14.6006 55.5356 19.1321L55.1844 23.6769C55.151 24.1093 55.2544 24.5325 55.4832 24.9007L56.4189 26.4061C57.5658 28.2512 58.1917 30.3644 58.2361 32.5328H55.6107C55.1822 32.5328 54.8159 32.8415 54.7431 33.264L53.4384 40.8479C53.2877 41.7235 52.5334 42.3615 51.6449 42.3651L43.9774 42.3951C42.2768 42.4018 40.8933 43.7907 40.8933 45.4913V51.9006C40.8933 52.3867 41.2874 52.7809 41.7736 52.7809C42.2598 52.7809 42.6539 52.3867 42.6539 51.9006V45.4913C42.6539 44.7577 43.2507 44.1585 43.9843 44.1557L51.6518 44.1257C53.3966 44.1187 54.8776 42.8659 55.1735 41.1464L56.3524 34.2936H58.4866C59.3206 34.2936 59.9992 33.615 59.9992 32.781C59.9993 30.197 59.2783 27.6713 57.9142 25.4767Z" fill="#FF471D"/>
<path d="M25.7006 37.2026C25.2145 37.2026 24.8203 37.5968 24.8203 38.0829V51.8036C24.8203 52.2898 25.2145 52.6839 25.7006 52.6839C26.1868 52.6839 26.5809 52.2898 26.5809 51.8036V38.0829C26.5809 37.5968 26.1868 37.2026 25.7006 37.2026Z" fill="#FF471D"/>
<path d="M43.2416 21.7593C43.4418 21.8526 43.6532 21.8985 43.8627 21.8985C44.1971 21.8985 44.5265 21.7817 44.7967 21.5553L50.2387 16.9949C50.5706 16.7169 50.761 16.309 50.761 15.8759C50.761 15.4429 50.5706 15.035 50.2388 14.757L44.7968 10.1965C44.3571 9.82811 43.7613 9.74994 43.2417 9.99255C42.722 10.235 42.3992 10.742 42.3992 11.3155V12.7979H35.0648C34.2505 12.7979 33.5879 13.4605 33.5879 14.2748V17.4768C33.5879 18.2912 34.2505 18.9537 35.0648 18.9537H42.3992V20.4362C42.3991 21.0099 42.722 21.5168 43.2416 21.7593ZM35.3482 17.1933V14.5586H43.2794C43.7655 14.5586 44.1597 14.1645 44.1597 13.6783V11.9598L48.8328 15.8759L44.1597 19.792V18.0736C44.1597 17.5874 43.7655 17.1933 43.2794 17.1933H35.3482Z" fill="#FF471D"/>
<path d="M27.9346 29.2861H20.6002V27.8037C20.6002 27.2302 20.2774 26.7231 19.7575 26.4807C19.2379 26.2381 18.642 26.3163 18.2025 26.6847L12.7605 31.2451C12.4287 31.5232 12.2383 31.931 12.2383 32.3639C12.2383 32.7968 12.4285 33.2048 12.7605 33.483L18.2026 38.0434C18.4729 38.2699 18.8021 38.3866 19.1365 38.3866C19.346 38.3866 19.5575 38.3407 19.7578 38.2473C20.2774 38.0048 20.6002 37.4978 20.6002 36.9244V35.4419H27.9346C28.749 35.4419 29.4116 34.7794 29.4116 33.9649V30.763C29.4116 29.9486 28.749 29.2861 27.9346 29.2861ZM27.651 33.6815H19.7199C19.2337 33.6815 18.8396 34.0756 18.8396 34.5618V36.2802L14.1664 32.3641L18.8396 28.4479V30.1664C18.8396 30.6525 19.2337 31.0467 19.7199 31.0467H27.651V33.6815Z" fill="#FF471D"/>
</svg>
