<svg width="61" height="62" viewBox="0 0 61 62" fill="none" xmlns="http://www.w3.org/2000/svg">
<path d="M9.25 9.08333C9.25 10.962 9.99628 12.7636 11.3247 14.092C12.653 15.4204 14.4547 16.1667 16.3333 16.1667C18.212 16.1667 20.0136 15.4204 21.342 14.092C22.6704 12.7636 23.4167 10.962 23.4167 9.08333C23.4167 7.20472 22.6704 5.40304 21.342 4.07466C20.0136 2.74628 18.212 2 16.3333 2C14.4547 2 12.653 2.74628 11.3247 4.07466C9.99628 5.40304 9.25 7.20472 9.25 9.08333Z" stroke="black" stroke-width="3"/>
<path d="M7.83268 61.5V44.5H2.16602V28.2225C6.18243 24.9969 11.1814 23.2423 16.3327 23.25C21.6933 23.25 26.6177 25.1115 30.4994 28.2225V34.6202M24.8327 61.5V44.5" stroke="black" stroke-width="3"/>
<path d="M33.332 42.3948H58.832V59.3948H33.332V42.3948Z" stroke="black" stroke-width="3"/>
<path d="M51.7493 42.3948V40.9782C51.7493 39.4753 51.1523 38.0339 50.0896 36.9712C49.0269 35.9085 47.5856 35.3115 46.0827 35.3115C44.5798 35.3115 43.1385 35.9085 42.0757 36.9712C41.013 38.0339 40.416 39.4753 40.416 40.9782V42.3948" stroke="black" stroke-width="3"/>
</svg>
