<svg width="101" height="100" viewBox="0 0 101 100" fill="none" xmlns="http://www.w3.org/2000/svg">
<path d="M59.55 51.7475C59.55 52.7345 59.55 53.7371 59.55 54.7423C59.55 55.784 59.0813 56.5834 58.3183 57.2761C57.9745 57.5862 57.7169 57.9801 57.5709 58.4194C57.2479 59.435 57.05 60.4897 56.7688 61.5209C56.3052 63.2709 55.2063 64.1251 53.3834 64.1251C51.2063 64.1251 49.0318 64.1251 46.8547 64.1251C45.2401 64.1251 44.162 63.31 43.7011 61.7527C43.4797 61.0079 43.3235 60.2449 43.1281 59.4949C42.8677 58.5079 42.6594 57.5704 41.7245 56.8491C41.2037 56.4506 40.9771 55.5183 40.8729 54.7892C40.7323 53.8048 40.8365 52.7866 40.8365 52.0157C39.9485 51.4689 39.0136 51.159 38.511 50.5079C38.0084 49.8569 37.8365 48.8725 37.7167 48.0105C37.4897 46.3303 36.8221 44.74 35.7818 43.4011C34.7401 42.034 33.662 40.6928 32.5891 39.3465C25.0839 29.9168 27.6177 14.7293 38.9276 7.97146C52.2453 0.0157318 69.3209 7.935 71.7766 23.2371C72.8182 29.6824 71.1854 35.4532 66.9407 40.4663C65.8729 41.7267 64.787 43.0105 63.9719 44.435C63.3263 45.5869 62.904 46.8504 62.7271 48.159C62.425 50.3803 61.8026 51.2501 59.55 51.7475ZM43.925 36.0444C43.3287 36.0444 42.8156 36.0444 42.3026 36.0444C41.3872 36.0267 40.4972 35.7407 39.743 35.2217C38.9887 34.7027 38.4035 33.9736 38.0599 33.125C37.7163 32.2764 37.6295 31.3455 37.8102 30.448C37.991 29.5504 38.4313 28.7257 39.0766 28.0762C39.7219 27.4267 40.5436 26.981 41.44 26.7944C42.3363 26.6078 43.2677 26.6885 44.1186 27.0266C44.9694 27.3646 45.7023 27.945 46.2262 28.6959C46.7501 29.4467 47.042 30.3349 47.0656 31.2501C47.0656 31.7892 47.0656 32.3282 47.0656 32.8517H53.3156C53.3156 32.2918 53.3156 31.81 53.3156 31.3204C53.3213 30.3962 53.6001 29.4943 54.1169 28.7281C54.6337 27.9619 55.3654 27.3656 56.2202 27.014C57.0749 26.6625 58.0145 26.5715 58.9208 26.7524C59.8271 26.9334 60.6597 27.3782 61.314 28.031C61.9682 28.6838 62.4149 29.5154 62.5978 30.4213C62.7808 31.3273 62.6918 32.267 62.3422 33.1226C61.9925 33.9781 61.3978 34.7112 60.6327 35.2296C59.8677 35.7481 58.9664 36.0289 58.0422 36.0366C57.5214 36.0366 57.024 36.0366 56.4797 36.0366V48.4637H59.5292C59.5292 45.8595 60.4901 43.659 61.9719 41.6616C62.8235 40.5157 63.7063 39.3907 64.6229 38.297C68.4849 33.7006 69.7375 28.4376 68.4198 22.6381C66.05 12.2215 55.9537 5.95063 45.5552 8.60167C31.9641 12.0652 27.524 28.1329 35.1698 37.5418C35.4302 37.8699 35.6906 38.211 35.9511 38.5392C38.3495 41.4845 40.8808 44.3647 40.8443 48.4506H43.925V36.0444ZM47.1281 36.0887V48.4532H53.2558V36.0887H47.1281ZM56.4068 51.7006H44.0162V54.6876H56.4172L56.4068 51.7006ZM46.7297 60.9715H53.636C53.8808 59.961 54.1203 58.9715 54.3755 57.922H46.0031C46.2558 58.9715 46.4953 59.961 46.7401 60.9715H46.7297ZM43.9432 32.9168C43.9432 32.3074 43.9849 31.7944 43.9432 31.2892C43.9102 30.8831 43.7239 30.5047 43.4221 30.231C43.1203 29.9572 42.7257 29.8086 42.3182 29.8152C41.9469 29.8546 41.5998 30.0182 41.3332 30.2796C41.0666 30.541 40.8961 30.8849 40.8495 31.2553C40.8317 31.6628 40.9713 32.0615 41.2394 32.3688C41.5075 32.6762 41.8835 32.8686 42.2896 32.9064C42.8403 32.9387 43.3922 32.9422 43.9432 32.9168ZM56.4433 32.9168C57.0038 32.9431 57.5654 32.9387 58.1255 32.9038C58.5142 32.8603 58.8732 32.6755 59.1345 32.3845C59.3957 32.0935 59.5408 31.7167 59.5422 31.3256C59.5126 30.9366 59.3453 30.5709 59.0704 30.2941C58.7955 30.0173 58.431 29.8475 58.0422 29.8152C57.6512 29.8131 57.2732 29.9551 56.9802 30.214C56.6872 30.4729 56.4997 30.8306 56.4537 31.2189C56.4204 31.7843 56.4186 32.3511 56.4485 32.9168H56.4433Z" fill="#FF471D"/>
<path d="M66.1468 79.2787C61.1988 74.8672 62.0348 68.5313 65.5114 65.1823C67.2962 63.4625 69.6874 62.5162 72.1657 62.5489C74.644 62.5816 77.0095 63.5906 78.7483 65.3568C82.1884 68.8829 82.6546 75.0704 78.0739 79.1329C79.527 80.1355 81.1181 81.0209 82.4488 82.198C85.7978 85.1589 87.5035 88.9558 87.6259 93.4349C87.6598 94.7709 87.1051 95.3152 85.7431 95.3152H58.3603C56.9515 95.3152 56.3785 94.7813 56.4515 93.3724C56.7692 87.1224 59.7405 82.5886 65.2822 79.7136C65.5634 79.5678 65.8473 79.4271 66.1468 79.2787ZM84.29 92.1589C83.9879 87.211 79.2561 81.0704 71.5686 81.3021C65.4749 81.4844 59.4072 87.1355 59.8212 92.1563H78.2718C77.5244 91.0339 76.9202 90.1068 76.2952 89.1902C75.79 88.4506 75.8343 87.6563 76.4436 87.0782C76.7286 86.8059 77.1069 86.6529 77.5009 86.6505C77.895 86.6481 78.2752 86.7964 78.5634 87.0652C78.8215 87.2633 79.0443 87.5037 79.2223 87.7761C80.0218 89.1928 80.7848 90.6277 81.6233 92.1589H84.29ZM78.2744 71.9271C78.2769 70.6881 77.9111 69.4763 77.2235 68.4457C76.5358 67.415 75.5574 66.6119 74.4124 66.1385C73.2674 65.6651 72.0075 65.5427 70.7928 65.7869C69.5781 66.031 68.4634 66.6307 67.5902 67.5098C66.717 68.3888 66.1248 69.5075 65.8888 70.7239C65.6528 71.9402 65.7836 73.1992 66.2647 74.341C66.7458 75.4828 67.5553 76.4559 68.5906 77.1366C69.6259 77.8173 70.8401 78.175 72.0791 78.1641C73.7201 78.1344 75.2849 77.4665 76.4416 76.302C77.5982 75.1376 78.2557 73.5683 78.2744 71.9271Z" fill="#FF471D"/>
<path d="M22.4651 79.2865C17.4573 74.8203 18.3974 68.4115 21.8896 65.125C23.69 63.4211 26.0898 62.496 28.568 62.5506C31.0463 62.6052 33.403 63.6351 35.1266 65.4167C38.5537 69.0052 38.9052 75.1536 34.3844 79.1328C35.8375 80.1354 37.4261 81.0156 38.7568 82.1901C42.1084 85.1458 43.8167 88.9427 43.9417 93.4219C43.9808 94.7708 43.4209 95.3151 42.0745 95.3151H14.5927C13.2907 95.3151 12.7099 94.7578 12.7698 93.4922C13.0302 87.2057 16.0198 82.6328 21.5901 79.7292C21.8714 79.5703 22.163 79.4271 22.4651 79.2865ZM22.1448 92.1615H40.5979C40.7125 86.6927 34.5511 81.2083 28.3011 81.2917C20.5693 81.3932 16.2828 87.724 16.1084 92.151H19.1162C19.4212 90.4021 20.2179 88.7763 21.413 87.4635C22.2308 86.5677 23.1578 86.4219 23.8792 87.0391C24.6005 87.6562 24.5745 88.526 23.8245 89.5312C23.262 90.2995 22.7933 91.1458 22.1448 92.1615ZM28.374 65.6823C27.1391 65.6762 25.9301 66.036 24.8995 66.7164C23.869 67.3968 23.0631 68.3672 22.5835 69.5052C22.104 70.6432 21.9723 71.8977 22.2051 73.1105C22.4379 74.3232 23.0247 75.4398 23.8916 76.3194C24.7584 77.1989 25.8664 77.8019 27.0756 78.0524C28.2848 78.3028 29.5412 78.1894 30.686 77.7264C31.8308 77.2635 32.8129 76.4718 33.5082 75.4512C34.2035 74.4307 34.5809 73.227 34.5927 71.9922C34.5929 70.3344 33.9406 68.7431 32.777 67.5623C31.6133 66.3816 30.0316 65.7062 28.374 65.6823Z" fill="#FF471D"/>
<path d="M20.6204 48.026C24.0058 49.8228 26.0553 52.5494 26.6829 56.2968C26.7524 56.7456 26.7855 57.1994 26.7819 57.6536C26.7819 58.8671 26.2246 59.4348 24.998 59.44C21.5527 59.44 18.11 59.44 14.6647 59.44C12.0319 59.44 9.39906 59.44 6.76624 59.44C5.4902 59.44 4.91208 58.8723 4.96416 57.5807C5.12822 53.5338 7.01624 50.4973 10.459 48.401C10.6725 48.2708 10.8912 48.1405 11.1048 48.0208C8.97718 44.2187 9.25843 41.1484 11.9017 38.9765C13.0329 38.0585 14.4475 37.5611 15.9044 37.5692C17.3612 37.5773 18.7702 38.0903 19.8912 39.0208C22.5162 41.2395 22.7819 44.328 20.6204 48.026ZM23.4407 56.289C23.0767 54.5166 22.1047 52.927 20.6929 51.7953C19.281 50.6636 17.5181 50.0607 15.709 50.0911C12.0892 50.19 8.87562 52.8801 8.34437 56.289H23.4407ZM18.985 43.8723C18.9714 43.0525 18.6432 42.2694 18.0684 41.6848C17.4935 41.1002 16.7159 40.759 15.8965 40.7317C15.2776 40.7245 14.6704 40.9012 14.1521 41.2395C13.6338 41.5778 13.2276 42.0623 12.985 42.6318C12.7425 43.2012 12.6744 43.8298 12.7896 44.438C12.9048 45.0461 13.1979 45.6063 13.6319 46.0476C14.0659 46.4889 14.6212 46.7914 15.2273 46.9168C15.8334 47.0421 16.4631 46.9846 17.0365 46.7516C17.6099 46.5186 18.1012 46.1205 18.4481 45.6079C18.795 45.0953 18.9819 44.4913 18.985 43.8723Z" fill="#FF471D"/>
<path d="M79.7378 48.0312C77.6544 43.9218 77.9539 40.9713 80.6675 38.8749C81.835 37.9749 83.2815 37.5134 84.7545 37.571C86.2276 37.6286 87.6337 38.2016 88.7274 39.19C91.2065 41.4661 91.4122 44.5546 89.2664 47.9869L90.1232 48.5077C93.4409 50.5911 95.2378 53.5885 95.4227 57.5077C95.4852 58.8619 94.9018 59.4244 93.5841 59.427C87.5373 59.427 81.4921 59.427 75.4487 59.427C74.1466 59.427 73.5659 58.8749 73.6076 57.6041C73.7326 53.8332 75.4096 50.9036 78.4956 48.7655C78.894 48.5077 79.3237 48.2786 79.7378 48.0312ZM92.0737 56.3046C91.7126 54.48 90.7051 52.8471 89.2363 51.706C87.7675 50.5649 85.9361 49.9924 84.0789 50.0937C80.5086 50.3254 77.2039 53.2187 77.0216 56.3046H92.0737ZM87.631 43.8385C87.631 43.2197 87.4473 42.6149 87.1032 42.1007C86.7592 41.5864 86.2702 41.1859 85.6982 40.9499C85.1263 40.7138 84.4972 40.6528 83.8906 40.7747C83.284 40.8965 82.7272 41.1957 82.2908 41.6343C81.8544 42.0729 81.558 42.6312 81.4392 43.2384C81.3203 43.8456 81.3845 44.4745 81.6234 45.0452C81.8623 45.6159 82.2653 46.1029 82.7812 46.4444C83.2972 46.7859 83.9029 46.9665 84.5216 46.9635C85.3421 46.9416 86.1226 46.6048 86.7015 46.023C87.2804 45.4412 87.6132 44.659 87.631 43.8385Z" fill="#FF471D"/>
<path d="M50.1735 67.2501C51.4066 67.2465 52.6131 67.6086 53.6404 68.2908C54.6677 68.9729 55.4696 69.9444 55.9447 71.0824C56.4199 72.2203 56.5468 73.4736 56.3096 74.6837C56.0724 75.8939 55.4816 77.0065 54.612 77.8808C53.7424 78.7551 52.633 79.3519 51.4242 79.5957C50.2154 79.8395 48.9615 79.7194 47.8209 79.2504C46.6804 78.7815 45.7046 77.9849 45.0169 76.9613C44.3291 75.9377 43.9604 74.7332 43.9573 73.5001C43.9494 72.6799 44.1045 71.8664 44.4136 71.1068C44.7228 70.3471 45.1798 69.6565 45.7582 69.0749C46.3366 68.4934 47.0247 68.0327 47.7827 67.7194C48.5407 67.4061 49.3533 67.2466 50.1735 67.2501ZM53.2985 73.4506C53.2938 72.8318 53.1055 72.2283 52.7574 71.7166C52.4093 71.205 51.9172 70.8082 51.3434 70.5765C50.7695 70.3449 50.1398 70.2888 49.5341 70.4154C48.9284 70.542 48.3739 70.8457 47.9409 71.2878C47.5079 71.7299 47.2159 72.2906 47.102 72.8989C46.988 73.5071 47.0573 74.1355 47.3008 74.7044C47.5444 75.2732 47.9514 75.757 48.4703 76.0943C48.9891 76.4316 49.5964 76.6073 50.2151 76.599C51.0368 76.5724 51.8168 76.2305 52.3933 75.6443C52.9697 75.0582 53.2985 74.2726 53.3115 73.4506H53.2985Z" fill="#FF471D"/>
<path d="M11.1746 71.9192C10.243 71.919 9.33258 71.6411 8.55958 71.1212C7.78658 70.6012 7.18604 69.8628 6.83461 69C6.48318 68.1372 6.39679 67.1893 6.58649 66.2772C6.77618 65.3651 7.23334 64.5303 7.89962 63.8792C8.5659 63.2281 9.41108 62.7903 10.3273 62.6216C11.2435 62.453 12.1892 62.5612 13.0436 62.9324C13.8981 63.3036 14.6225 63.921 15.1245 64.7058C15.6265 65.4906 15.8833 66.4071 15.8621 67.3385C15.8435 68.5661 15.3404 69.7366 14.4622 70.5948C13.5841 71.4529 12.4023 71.929 11.1746 71.9192ZM12.7371 67.2734C12.7269 66.8673 12.5652 66.4796 12.2838 66.1867C12.0024 65.8937 11.6216 65.7165 11.2162 65.69C10.9989 65.6623 10.7781 65.6806 10.5682 65.7437C10.3584 65.8068 10.1642 65.9134 9.99818 66.0565C9.8322 66.1995 9.69817 66.3759 9.6048 66.5742C9.51143 66.7724 9.4608 66.9881 9.45621 67.2072C9.45162 67.4263 9.49317 67.6439 9.57815 67.8459C9.66313 68.0479 9.78965 68.2297 9.9495 68.3797C10.1093 68.5296 10.2989 68.6442 10.5059 68.716C10.713 68.7879 10.9328 68.8154 11.1511 68.7968C11.5588 68.7879 11.9484 68.6265 12.2429 68.3445C12.5375 68.0625 12.7157 67.6803 12.7423 67.2734H12.7371Z" fill="#FF471D"/>
<path d="M22.1054 20.4844C22.1018 21.4117 21.8232 22.3171 21.3049 23.086C20.7866 23.855 20.0519 24.4529 19.1937 24.8042C18.3355 25.1555 17.3924 25.2443 16.4837 25.0595C15.575 24.8747 14.7415 24.4245 14.0887 23.7659C13.4359 23.1072 12.9931 22.2698 12.8164 21.3595C12.6397 20.4492 12.7369 19.5069 13.0958 18.6518C13.4547 17.7968 14.0592 17.0674 14.8327 16.5559C15.6062 16.0445 16.5141 15.774 17.4414 15.7786C18.058 15.7765 18.6688 15.8971 19.2384 16.1333C19.808 16.3696 20.3248 16.7168 20.7589 17.1547C21.1929 17.5927 21.5355 18.1126 21.7667 18.6842C21.9979 19.2559 22.113 19.8678 22.1054 20.4844ZM17.4179 22.0026C17.7275 22.0052 18.0309 21.9157 18.2895 21.7456C18.5482 21.5755 18.7505 21.3324 18.8707 21.0471C18.991 20.7618 19.0238 20.4473 18.965 20.1433C18.9062 19.8394 18.7584 19.5597 18.5404 19.3399C18.3224 19.1201 18.0441 18.97 17.7406 18.9086C17.4372 18.8473 17.1223 18.8774 16.8361 18.9953C16.5498 19.1132 16.305 19.3134 16.1327 19.5707C15.9604 19.8279 15.8685 20.1305 15.8685 20.4401C15.8839 20.8491 16.0531 21.2373 16.3423 21.5269C16.6315 21.8166 17.0193 21.9865 17.4284 22.0026H17.4179Z" fill="#FF471D"/>
<path d="M82.9466 25.1251C82.0232 25.1225 81.1212 24.8465 80.3545 24.3319C79.5878 23.8172 78.9907 23.087 78.6385 22.2334C78.2863 21.3798 78.1948 20.441 78.3756 19.5355C78.5564 18.6299 79.0013 17.7982 79.6543 17.1452C80.3072 16.4923 81.1389 16.0474 82.0445 15.8666C82.95 15.6858 83.8888 15.7773 84.7425 16.1295C85.5961 16.4816 86.3263 17.0788 86.8409 17.8455C87.3555 18.6122 87.6315 19.5142 87.6341 20.4376C87.6404 21.0549 87.5234 21.6672 87.2901 22.2388C87.0567 22.8103 86.7117 23.3296 86.2751 23.7661C85.8386 24.2026 85.3194 24.5477 84.7478 24.781C84.1763 25.0144 83.5639 25.1313 82.9466 25.1251ZM81.4049 20.4376C81.3987 20.7479 81.4851 21.053 81.6529 21.314C81.8208 21.575 82.0626 21.7801 82.3475 21.9032C82.6324 22.0263 82.9475 22.0617 83.2526 22.005C83.5578 21.9483 83.8391 21.802 84.0608 21.5848C84.2824 21.3675 84.4344 21.0892 84.4972 20.7853C84.5601 20.4814 84.531 20.1657 84.4137 19.8783C84.2965 19.591 84.0963 19.3451 83.8387 19.172C83.5811 18.9989 83.2778 18.9064 82.9674 18.9063C82.564 18.9199 82.1802 19.0836 81.8911 19.3654C81.6021 19.6472 81.4287 20.0268 81.4049 20.4298V20.4376Z" fill="#FF471D"/>
<path d="M93.8727 67.1874C93.8845 68.1188 93.6186 69.0327 93.1088 69.8123C92.5991 70.592 91.8686 71.202 91.0106 71.5647C90.1525 71.9274 89.2059 72.0262 88.2915 71.8485C87.3771 71.6709 86.5364 71.2248 85.8766 70.5672C85.2168 69.9096 84.7679 69.0704 84.5871 68.1566C84.4064 67.2428 84.502 66.2959 84.8618 65.4366C85.2216 64.5774 85.8292 63.8448 86.6071 63.3325C87.385 62.8201 88.298 62.5511 89.2294 62.5598C90.4578 62.5611 91.6356 63.0486 92.5057 63.9157C93.3757 64.7828 93.8672 65.9591 93.8727 67.1874ZM89.2216 68.7863C89.5314 68.7826 89.8331 68.6869 90.0883 68.5114C90.3436 68.3359 90.5409 68.0884 90.6552 67.8005C90.7695 67.5126 90.7957 67.1972 90.7303 66.8944C90.665 66.5915 90.5111 66.315 90.2882 66.0998C90.0653 65.8847 89.7835 65.7406 89.4786 65.686C89.1737 65.6313 88.8594 65.6685 88.5757 65.7929C88.2919 65.9173 88.0516 66.1232 87.8851 66.3845C87.7187 66.6457 87.6337 66.9506 87.6409 67.2603C87.6642 67.6678 87.8395 68.0517 88.1322 68.3362C88.4249 68.6207 88.8136 68.785 89.2216 68.7968V68.7863Z" fill="#FF471D"/>
</svg>
