<svg width="62" height="60" viewBox="0 0 62 60" fill="none" xmlns="http://www.w3.org/2000/svg">
<path d="M23.5893 25.3125C24.2536 25.3125 24.7928 24.7874 24.7928 24.1406C24.7928 23.4906 24.2479 22.9688 23.5893 22.9688C22.925 22.9688 22.3857 23.4938 22.3857 24.1406C22.3857 24.7879 22.925 25.3125 23.5893 25.3125Z" fill="#FF471D"/>
<path d="M30.811 10.0781C31.4757 10.0781 32.0145 9.55353 32.0145 8.90625V1.17188C32.0145 0.524597 31.4757 0 30.811 0C30.1462 0 29.6074 0.524597 29.6074 1.17188V8.90625C29.6074 9.55353 30.1462 10.0781 30.811 10.0781Z" fill="#FF471D"/>
<path d="M29.6074 51.0938V58.8281C29.6074 59.4754 30.1462 60 30.811 60C31.4757 60 32.0145 59.4754 32.0145 58.8281V51.0938C32.0145 50.4465 31.4757 49.9219 30.811 49.9219C30.1462 49.9219 29.6074 50.4465 29.6074 51.0938Z" fill="#FF471D"/>
<path d="M12.2336 15.9128C12.7038 16.3705 13.4654 16.3705 13.936 15.9128C14.4057 15.4555 14.4057 14.7134 13.936 14.2557L8.82891 9.28345C8.35924 8.82568 7.59715 8.82568 7.12702 9.28345C6.65688 9.74121 6.65688 10.4832 7.12702 10.9406L12.2336 15.9128Z" fill="#FF471D"/>
<path d="M47.6856 45.2586C47.2155 45.7164 47.2155 46.4584 47.6856 46.9162L52.7922 51.8884C53.2619 52.3457 54.024 52.3462 54.4941 51.8884C54.9643 51.4307 54.9643 50.6886 54.4941 50.2309L49.3875 45.2586C48.9174 44.8013 48.1557 44.8013 47.6856 45.2586Z" fill="#FF471D"/>
<path d="M49.3875 15.9128L54.4941 10.9406C54.9643 10.4832 54.9643 9.74121 54.4941 9.28345C54.024 8.82568 53.2624 8.82568 52.7922 9.28345L47.6856 14.2557C47.2155 14.7134 47.2155 15.4555 47.6856 15.9128C48.1557 16.3705 48.9174 16.3705 49.3875 15.9128Z" fill="#FF471D"/>
<path d="M12.2336 45.2591L7.12702 50.2313C6.65688 50.6886 6.65688 51.4307 7.12702 51.8884C7.59715 52.3462 8.35877 52.3462 8.82891 51.8884L13.936 46.9162C14.4057 46.4584 14.4057 45.7164 13.936 45.2591C13.4659 44.8013 12.7038 44.8013 12.2336 45.2591Z" fill="#FF471D"/>
<path d="M10.8117 38.5121C17.0838 43.6766 23.9995 46.4062 30.8104 46.4062C37.6217 46.4062 44.5369 43.6766 50.809 38.5121C55.5085 34.6426 58.176 30.8153 58.287 30.6541C58.5601 30.2586 58.5601 29.7414 58.287 29.3459C58.176 29.1852 55.5085 25.3574 50.809 21.4879C44.5369 16.3234 37.6217 13.5938 30.8104 13.5938C23.9995 13.5938 17.0838 16.3234 10.8117 21.4879C6.11274 25.3574 3.44519 29.1847 3.33377 29.3459C3.06062 29.7414 3.06062 30.2586 3.33377 30.6541C3.44519 30.8153 6.11274 34.6426 10.8117 38.5121ZM12.366 23.2777C16.4327 19.9292 22.9337 15.9375 30.8104 15.9375C38.6631 15.9375 45.1472 19.9063 49.204 23.2356C52.5546 25.9859 54.8555 28.77 55.8042 30.0009C54.863 31.2231 52.5875 33.978 49.2547 36.7223C45.1881 40.0708 38.687 44.0625 30.8104 44.0625C22.9577 44.0625 16.4736 40.0937 12.4173 36.7644C9.06613 34.0141 6.76482 31.2296 5.81702 29.9995C6.75777 28.7769 9.03322 26.022 12.366 23.2777Z" fill="#FF471D"/>
<path d="M30.8104 40.5469C36.8202 40.5469 41.6424 35.7976 41.6424 30C41.6424 24.1846 36.783 19.4531 30.8104 19.4531C29.5458 19.4531 28.173 19.6788 26.9337 20.1489C26.3141 20.3833 26.0071 21.0626 26.2478 21.666C26.4744 22.2336 27.1072 22.5943 27.9224 22.2917C28.8392 21.9576 29.8659 21.7969 30.8104 21.7969C35.4559 21.7969 39.2353 25.4768 39.2353 30C39.2353 34.5099 35.4798 38.2031 30.8104 38.2031C26.165 38.2031 22.3856 34.5232 22.3856 30C22.3856 29.453 22.4354 29.0323 22.5248 28.504C22.6484 27.8682 22.2192 27.2589 21.5662 27.1376C20.915 27.0177 20.2832 27.4374 20.1586 28.0728C20.0354 28.7091 19.9785 29.3811 19.9785 30C19.9785 35.8154 24.8378 40.5469 30.8104 40.5469Z" fill="#FF471D"/>
<path d="M35.6255 30C35.6255 27.4155 33.4656 25.3125 30.8113 25.3125C28.1569 25.3125 25.9971 27.4155 25.9971 30C25.9971 32.5845 28.1569 34.6875 30.8113 34.6875C33.4656 34.6875 35.6255 32.5845 35.6255 30ZM28.4042 30C28.4042 28.7077 29.4841 27.6562 30.8113 27.6562C32.1385 27.6562 33.2184 28.7077 33.2184 30C33.2184 31.2923 32.1385 32.3438 30.8113 32.3438C29.4841 32.3438 28.4042 31.2923 28.4042 30Z" fill="#FF471D"/>
</svg>
