<svg width="60" height="60" viewBox="0 0 60 60" fill="none" xmlns="http://www.w3.org/2000/svg">
<g clip-path="url(#clip0_278_1202)">
<path d="M4.32636 60C3.84668 59.6485 3.73886 59.1922 3.85761 58.6188C4.07168 57.611 4.23418 56.5875 4.43418 55.5828C4.56074 54.9422 4.82168 54.7422 5.48418 54.7391C6.32011 54.7391 7.15761 54.7391 8.07011 54.7391C8.26386 53.7063 8.41543 52.6734 8.6623 51.6641C8.84355 50.9234 8.67324 50.3391 8.28105 49.7016C5.86543 45.7719 3.49355 41.8156 1.09355 37.875C0.437961 36.8097 0.09723 35.5805 0.110738 34.3297C0.124801 25.7813 0.110738 17.2172 0.124801 8.66095C0.124801 6.9047 0.970113 5.59376 2.5123 4.79845C4.05449 4.00314 5.5623 4.13439 6.98574 5.11095C7.80619 5.68669 8.41366 6.51715 8.71386 7.47345C8.76087 7.58539 8.82972 7.68684 8.91637 7.77189C9.00302 7.85693 9.10575 7.92386 9.21855 7.96876C11.1561 8.59376 12.3842 10.2297 12.3873 12.2563C12.3873 15.8625 12.3873 19.4688 12.3873 23.075C12.3988 23.211 12.3946 23.3478 12.3748 23.4828C12.2717 23.9328 11.9935 24.2 11.5154 24.2016C11.0373 24.2031 10.7545 23.9406 10.6529 23.4891C10.6294 23.3151 10.6247 23.1391 10.6389 22.9641C10.6389 19.4557 10.6389 15.9474 10.6389 12.4391C10.6389 11.1375 10.0639 10.2516 8.93261 9.80626V26.6969C9.46074 26.4969 9.98105 26.2281 10.5373 26.0985C12.242 25.7203 13.6701 26.2766 14.8842 27.4938C17.704 30.3229 20.5279 33.149 23.3561 35.9719L26.8279 39.4453C27.5898 40.1898 28.1926 41.0812 28.5998 42.0656C29.007 43.05 29.21 44.1067 29.1967 45.1719C29.2139 49.7141 29.1967 54.2547 29.2092 58.7969C29.2223 59.0278 29.1783 59.2585 29.081 59.4683C28.9837 59.6782 28.8361 59.8608 28.6514 60H4.32636ZM9.90293 54.7047H27.4029V54.0438C27.4029 51.1781 27.3717 48.3125 27.4123 45.45C27.442 43.4563 26.7326 41.8344 25.3232 40.4406C21.817 36.9735 18.3451 33.4719 14.8545 29.9844C14.3451 29.475 13.8529 28.9453 13.3154 28.4656C12.9692 28.1334 12.537 27.9047 12.0676 27.8053C11.5982 27.7059 11.1103 27.7398 10.6592 27.9031C9.68418 28.225 9.12168 28.9375 8.94043 29.9344C8.76699 30.8969 9.13574 31.6766 9.81386 32.3516C13.7316 36.261 17.6451 40.175 21.5545 44.0938C21.7133 44.2369 21.8592 44.3937 21.9904 44.5625C22.2732 44.9703 22.242 45.3828 21.8842 45.7235C21.5264 46.0641 21.1451 46.0516 20.7623 45.7859C20.6087 45.6665 20.4659 45.5337 20.3357 45.3891C16.5014 41.5625 12.6873 37.7094 8.83105 33.9063C7.6623 32.7531 7.1123 31.461 7.1123 29.8016C7.15605 22.8828 7.12949 15.9625 7.13261 9.04376C7.13261 8.11876 6.87793 7.3047 6.15136 6.70001C5.32949 6.02032 4.39511 5.8672 3.42168 6.31876C2.34355 6.82345 1.8748 7.73126 1.8748 8.90626C1.8748 17.3656 1.8748 25.825 1.8748 34.2844C1.86942 35.2219 2.12709 36.1422 2.61855 36.9406C5.19668 41.1813 7.75918 45.4328 10.3404 49.6735C10.4685 49.8664 10.556 50.0833 10.5977 50.3111C10.6393 50.5388 10.6342 50.7727 10.5826 50.9985C10.3264 52.2219 10.1279 53.4484 9.90293 54.7047ZM5.75136 58.2141H27.3592V56.5094H6.07168C5.96699 57.0641 5.86386 57.6125 5.75136 58.2141Z" fill="#FF471D"/>
<path d="M31.4608 60C31.0139 59.6703 30.8998 59.2187 30.9014 58.6797C30.916 54.2359 30.916 49.7922 30.9014 45.3484C30.9014 42.9922 31.717 40.9891 33.4014 39.3203C37.2983 35.4453 41.1852 31.5599 45.0623 27.6641C46.9748 25.7531 48.7264 25.4766 51.1764 26.7563V9.84375C50.1811 10.0797 49.4811 11.0734 49.4717 12.3203C49.4576 14.1953 49.4717 16.0703 49.4717 17.9344C49.4717 19.6688 49.4717 21.4036 49.4717 23.1391C49.4717 23.8312 49.1592 24.2031 48.5904 24.1984C48.0217 24.1937 47.7233 23.8219 47.7233 23.125C47.7233 19.5 47.7233 15.8745 47.7233 12.2484C47.7233 10.2172 48.9576 8.5875 50.8967 7.96563C51.0034 7.92723 51.1013 7.86793 51.1847 7.79119C51.2682 7.71446 51.3355 7.62183 51.3826 7.51875C52.1139 5.42969 53.7498 4.2375 55.8811 4.31875C57.9561 4.4 59.6029 6.0375 59.9108 7.78906C59.9201 7.84219 59.9701 7.8875 60.0014 7.93594V35.4359C59.5467 36.4562 59.1873 37.5313 58.6217 38.4859C56.3045 42.4016 53.9248 46.2797 51.5764 50.1766C51.4529 50.3812 51.317 50.6453 51.3498 50.8656C51.5483 52.15 51.7951 53.4266 52.0326 54.7406C52.9264 54.7406 53.7811 54.7406 54.6342 54.7406C55.292 54.7406 55.5529 54.9469 55.6811 55.5875C55.8811 56.5969 56.042 57.6187 56.2561 58.6219C56.3779 59.1937 56.2686 59.65 55.7873 60.0016L31.4608 60ZM50.2108 54.7094C49.9904 53.4703 49.8061 52.2609 49.5529 51.0672C49.4955 50.8233 49.4889 50.5703 49.5335 50.3238C49.5782 50.0773 49.6731 49.8426 49.8123 49.6344C52.3451 45.4797 54.8483 41.3062 57.3842 37.1547C57.9618 36.2275 58.2631 35.1548 58.2529 34.0625C58.2425 25.7583 58.2425 17.4547 58.2529 9.15156C58.2529 8.975 58.2529 8.8 58.2529 8.625C58.1436 6.85 56.4779 5.67656 54.8279 6.20938C53.692 6.57656 52.992 7.64531 52.992 9.0375C52.992 16.0938 52.992 23.15 52.992 30.2063C53.0088 30.821 52.8988 31.4326 52.669 32.003C52.4391 32.5735 52.0943 33.0905 51.6561 33.5219C47.6498 37.5354 43.6394 41.5458 39.6248 45.5531C39.1264 46.05 38.5779 46.0953 38.1951 45.6922C37.8123 45.2891 37.8608 44.8094 38.3514 44.3063C39.1326 43.5156 39.9139 42.7344 40.7061 41.9484C43.9029 38.7505 47.1003 35.5536 50.2983 32.3578C50.9592 31.6984 51.3326 30.9359 51.1842 29.9969C51.0279 28.9766 50.4623 28.2344 49.4654 27.9047C48.9951 27.7308 48.4842 27.6983 47.9957 27.811C47.5071 27.9237 47.0621 28.1768 46.7154 28.5391C45.5701 29.6531 44.4514 30.7938 43.3217 31.925C40.4279 34.8188 37.5337 37.7125 34.6389 40.6063C33.4264 41.8156 32.7264 43.2453 32.7217 44.9812C32.7144 48.1187 32.7144 51.2568 32.7217 54.3953C32.7305 54.5035 32.7488 54.6107 32.7764 54.7156L50.2108 54.7094ZM32.7451 58.2031H54.3639C54.2514 57.6078 54.1467 57.0594 54.0514 56.5297H32.7451V58.2031Z" fill="#FF471D"/>
<path d="M30.0739 19.4078C32.9786 19.4078 35.8817 19.4078 38.7864 19.4078C41.7848 19.4078 44.2114 21.3844 44.8598 24.3172C44.9958 24.9422 44.8895 25.4109 44.3911 25.8797C40.963 29.1234 36.9161 31.0703 32.2286 31.5219C25.8458 32.1453 20.2942 30.2031 15.6255 25.7812C15.1911 25.3703 15.1567 24.9203 15.2458 24.4031C15.5106 23.0019 16.2549 21.7366 17.3508 20.8243C18.4468 19.912 19.8261 19.4095 21.252 19.4031C24.1864 19.4 27.1302 19.4078 30.0739 19.4078ZM30.0942 21.1578C27.1911 21.1578 24.288 21.1484 21.3848 21.1578C19.4114 21.1672 17.7911 22.314 17.1661 24.0875C17.0317 24.464 17.0583 24.7125 17.3802 25C20.5208 27.7969 24.1817 29.45 28.363 29.7906C33.8067 30.2359 38.6208 28.6453 42.738 25.0094C43.0505 24.7297 43.1036 24.4875 42.9661 24.1031C42.3411 22.325 40.7223 21.1687 38.7473 21.1594C35.863 21.1484 32.9786 21.1578 30.0942 21.1578Z" fill="#FF471D"/>
<path d="M38.8281 8.925C38.8203 13.7828 34.8797 17.6562 29.9641 17.6562C25.1531 17.6438 21.2781 13.6906 21.2891 8.80469C21.2985 3.97656 25.2422 0.0968746 30.1219 0.104687C34.95 0.114062 38.8344 4.05 38.8281 8.925ZM37.0766 8.89531C37.0641 7.04486 36.3277 5.27283 35.0249 3.95865C33.7221 2.64447 31.9565 1.89261 30.1063 1.86406C26.2672 1.83594 23.05 5.02344 23.0391 8.86562C23.0281 12.6828 26.1906 15.8766 30.0094 15.9047C33.8281 15.9328 37.0656 12.7375 37.0766 8.89531Z" fill="#FF471D"/>
</g>
<defs>
<clipPath id="clip0_278_1202">
<rect width="60" height="60" fill="white"/>
</clipPath>
</defs>
</svg>
