<svg width="60" height="60" viewBox="0 0 60 60" fill="none" xmlns="http://www.w3.org/2000/svg">
<g clip-path="url(#clip0_278_1101)">
<path d="M36.0339 33.7742C35.5682 33.634 35.0775 33.8979 34.9373 34.3635L33.4572 39.2835C33.4325 39.3658 33.4199 39.4513 33.4199 39.5372V55.4132C33.4199 55.8993 33.8141 56.2935 34.3002 56.2935C34.7864 56.2935 35.1805 55.8993 35.1805 55.4132V39.6668L36.6233 34.8708C36.7634 34.4052 36.4996 33.9142 36.0339 33.7742Z" fill="#FF471D"/>
<path d="M38.5489 24.334C38.0684 24.2611 37.6197 24.5921 37.5469 25.0727C37.4225 25.8949 37.2387 26.7132 37.0005 27.5048L36.018 30.7711C35.878 31.2367 36.1418 31.7275 36.6073 31.8677C36.692 31.8931 36.7773 31.9052 36.8613 31.9052C37.2397 31.9052 37.5894 31.6593 37.704 31.2783L38.6865 28.0121C38.9486 27.1409 39.1508 26.2406 39.2877 25.3361C39.3604 24.8553 39.0297 24.4066 38.5489 24.334Z" fill="#FF471D"/>
<path d="M16.0216 46.0047L8.35414 45.9746C7.46563 45.9711 6.71139 45.3331 6.5608 44.4575L5.25608 36.8735C5.18342 36.4511 4.8171 36.1424 4.38846 36.1424H1.76306C1.80743 33.9739 2.43338 31.8608 3.58023 30.0157L4.51604 28.5101C4.74492 28.1418 4.84821 27.7187 4.81476 27.2865L4.46358 22.7417C4.11345 18.2102 5.62099 13.8776 8.7086 10.5423C11.7962 7.20692 15.9997 5.37004 20.5447 5.37004C20.7492 5.37004 20.9619 5.37391 21.1768 5.38154C21.6613 5.39914 22.0705 5.01886 22.0877 4.53305C22.105 4.04724 21.725 3.63937 21.2392 3.62212C21.0035 3.61378 20.7698 3.60956 20.5447 3.60956C15.5766 3.60956 10.7916 5.70056 7.41656 9.3464C4.04162 12.9922 2.32551 17.9241 2.70826 22.8774L3.05944 27.4223C3.06379 27.4784 3.05029 27.5332 3.02071 27.581L2.08501 29.0864C0.721022 31.2808 0 33.8066 0 36.3905C0 37.2246 0.678533 37.9031 1.51259 37.9031H3.64678L4.82567 44.7561C5.12157 46.4755 6.60258 47.7284 8.34733 47.7353L16.0148 47.7654C16.7484 47.7682 17.3453 48.3674 17.3453 49.101V55.5102C17.3453 55.9964 17.7394 56.3905 18.2256 56.3905C18.7117 56.3905 19.1059 55.9964 19.1059 55.5102V49.101C19.1059 47.4002 17.7223 46.0112 16.0216 46.0047Z" fill="#FF471D"/>
<path d="M57.9151 29.0863L56.9794 27.5809C56.9497 27.5331 56.9364 27.4782 56.9406 27.4222L57.2918 22.8774C57.6745 17.924 55.9584 12.9922 52.5835 9.3464C49.2085 5.70056 44.4235 3.60956 39.4553 3.60956C36.0518 3.60956 32.8096 4.49068 29.9815 6.12568C28.5574 5.3029 27.0263 4.66392 25.4244 4.24056C24.9545 4.11602 24.4726 4.39678 24.3485 4.86674C24.2242 5.3367 24.5046 5.81852 24.9746 5.9427C26.1321 6.24857 27.2487 6.6791 28.3084 7.21878C26.7869 8.33135 25.418 9.68255 24.2516 11.2515C20.641 16.108 19.5701 22.217 21.3134 28.0121L22.0644 30.5085C22.2044 30.974 22.6955 31.2382 23.161 31.0978C23.6265 30.9578 23.8905 30.4668 23.7503 30.0012L22.9994 27.5048C21.4181 22.2483 22.3895 16.707 25.6646 12.3018C26.8842 10.6613 28.347 9.28184 29.9859 8.19591C32.2702 9.70603 34.1992 11.7609 35.5599 14.196C35.7212 14.4845 36.0206 14.6471 36.3292 14.6471C36.4745 14.6471 36.6219 14.6109 36.7577 14.5351C37.1821 14.2979 37.334 13.7616 37.0968 13.3372C35.7408 10.9104 33.8712 8.82667 31.6628 7.21878C34.0321 6.01453 36.6846 5.37003 39.4554 5.37003C44.0004 5.37003 48.2039 7.20692 51.2915 10.5423C54.3791 13.8777 55.8867 18.2102 55.5366 22.7417L55.1854 27.2865C55.1519 27.7189 55.2553 28.142 55.4842 28.5102L56.4199 30.0157C57.5668 31.8608 58.1927 33.9739 58.2371 36.1424H55.6117C55.1832 36.1424 54.8168 36.4511 54.7441 36.8735L53.4393 44.4575C53.2886 45.3331 52.5344 45.9711 51.6459 45.9746L43.9784 46.0047C42.2778 46.0114 40.8943 47.4002 40.8943 49.1008V55.5101C40.8943 55.9963 41.2884 56.3904 41.7746 56.3904C42.2607 56.3904 42.6549 55.9963 42.6549 55.5101V49.1008C42.6549 48.3673 43.2517 47.7681 43.9853 47.7653L51.6528 47.7352C53.3976 47.7283 54.8786 46.4755 55.1745 44.7559L56.3534 37.9031H58.4876C59.3216 37.9031 60.0001 37.2246 60.0001 36.3905C60.0003 33.8066 59.2792 31.2808 57.9151 29.0863Z" fill="#FF471D"/>
<path d="M25.6996 40.8122C25.2135 40.8122 24.8193 41.2063 24.8193 41.6925V55.4132C24.8193 55.8993 25.2135 56.2935 25.6996 56.2935C26.1858 56.2935 26.5799 55.8993 26.5799 55.4132V41.6925C26.5799 41.2063 26.1858 40.8122 25.6996 40.8122Z" fill="#FF471D"/>
<path d="M43.2426 25.3689C43.4428 25.4622 43.6542 25.5081 43.8637 25.5081C44.1981 25.5081 44.5274 25.3913 44.7976 25.1649L50.2396 20.6045C50.5716 20.3264 50.7619 19.9185 50.7619 19.4854C50.7619 19.0524 50.5716 18.6446 50.2397 18.3665L44.7977 13.8061C44.3581 13.4377 43.7623 13.3595 43.2427 13.6021C42.7229 13.8446 42.4002 14.3515 42.4002 14.925V16.4074H35.0658C34.2514 16.4074 33.5889 17.07 33.5889 17.8843V21.0864C33.5889 21.9007 34.2514 22.5633 35.0658 22.5633H42.4002V24.0457C42.4001 24.6194 42.7229 25.1264 43.2426 25.3689ZM35.3492 20.8028V18.1682H43.2804C43.7665 18.1682 44.1607 17.774 44.1607 17.2879V15.5694L48.8337 19.4854L44.1607 23.4016V21.6831C44.1607 21.197 43.7665 20.8028 43.2804 20.8028H35.3492Z" fill="#FF471D"/>
<path d="M27.9355 32.8956H20.6011V31.4132C20.6011 30.8397 20.2784 30.3327 19.7585 30.0903C19.2389 29.8477 18.643 29.9259 18.2034 30.2943L12.7614 34.8547C12.4296 35.1328 12.2393 35.5405 12.2393 35.9735C12.2393 36.4064 12.4295 36.8144 12.7614 37.0925L18.2036 41.6529C18.4739 41.8795 18.8031 41.9961 19.1375 41.9961C19.347 41.9961 19.5585 41.9503 19.7588 41.8568C20.2784 41.6143 20.6011 41.1074 20.6011 40.5339V39.0515H27.9355C28.75 39.0515 29.4126 38.3889 29.4126 37.5745V34.3725C29.4126 33.5582 28.75 32.8956 27.9355 32.8956ZM27.652 37.291H19.7208C19.2347 37.291 18.8405 37.6852 18.8405 38.1713V39.8898L14.1673 35.9736L18.8405 32.0575V33.7759C18.8405 34.2621 19.2347 34.6562 19.7208 34.6562H27.652V37.291Z" fill="#FF471D"/>
</g>
<defs>
<clipPath id="clip0_278_1101">
<rect width="60" height="60" fill="white"/>
</clipPath>
</defs>
</svg>
