<svg width="29" height="30" viewBox="0 0 29 30" fill="none" xmlns="http://www.w3.org/2000/svg">
<path d="M9.10802 8.20014C12.0086 8.14434 13.8821 11.2496 12.4801 13.7895C11.8042 15.0139 10.5062 15.7633 9.10802 15.7364C6.20679 15.7363 4.39349 12.5955 5.84423 10.0831C6.51739 8.91706 7.76158 8.19873 9.10802 8.19873V8.20014Z" stroke="#27272E" stroke-width="1.5"/>
<path d="M23.9619 1.90003C26.8627 1.84424 28.736 4.94946 27.334 7.48941C26.6583 8.71376 25.3601 9.46319 23.9619 9.43632C21.0612 9.38052 19.3087 6.20555 20.8074 3.72127C21.4762 2.61261 22.6675 1.92499 23.9619 1.90003Z" stroke="#27272E" stroke-width="1.5"/>
<path d="M18.7232 15.7364C21.6244 15.7363 23.4377 18.8768 21.9872 21.3894C21.314 22.5556 20.0698 23.274 18.7232 23.274C15.822 23.274 14.0088 20.1333 15.4594 17.6207C16.1326 16.4546 17.3768 15.7363 18.7232 15.7364Z" stroke="#27272E" stroke-width="1.5"/>
<path d="M0.75 20.0176L6.12732 14.2748" stroke="#27272E" stroke-width="1.5"/>
<path d="M12.3938 13.8463L15.842 17.0635" stroke="#27272E" stroke-width="1.5"/>
<path d="M20.3851 16.1003L22.8701 9.27112" stroke="#27272E" stroke-width="1.5"/>
<path d="M0.75 0.500122V28.5001H28.75" stroke="#27272E" stroke-width="1.5"/>
</svg>
